<svg width="512" height="512" viewBox="0 0 512 512" xmlns="http://www.w3.org/2000/svg">
    <circle cx="256" cy="256" r="248" fill="#f97316" />
    <path d="M256,8 C392.969,8 504,119.031 504,256 C504,392.969 392.969,504 256,504 C119.031,504 8,392.969 8,256 C8,119.031 119.031,8 256,8 Z" fill="none" stroke="#000000" stroke-width="24"/>
    <path d="M8,256 H504" fill="none" stroke="#000000" stroke-width="24"/>
    <path d="M256,8 V504" fill="none" stroke="#000000" stroke-width="24"/>
    <path d="M120,8 C120,8 180,120 180,256 C180,392 120,504 120,504" fill="none" stroke="#000000" stroke-width="24"/>
    <path d="M392,8 C392,8 332,120 332,256 C332,392 392,504 392,504" fill="none" stroke="#000000" stroke-width="24"/>
</svg>
